# xmcd CD database file
#
# Track frame offsets:
#	150
#	23265
#	42607
#	61972
#	76657
#	94889
#	106573
#	119623
#	138040
#	145119
#	161657
#	174554
#	186266
#
# Disc length: 2578 seconds
#
# Revision: 0
# Processed by: cddbd v1.5.1PL0 Copyright (c) Steve Scherf et al.
# Submitted via: CDex 1.51
#
DISCID=a00a100d
DTITLE=Picasso's Ear - Expect a Miracle
DYEAR=1999
DGENRE=Jazz
TTITLE0=Live and Learn
TTITLE1=Message from Dreamland
TTITLE2=Concrete River
TTITLE3=Came back home
TTITLE4=For whatever reason
TTITLE5=Linda Kay
TTITLE6=Expect a miracle
TTITLE7=Once again one
TTITLE8=Weak in the knees
TTITLE9=It's all around us
TTITLE10=Lesson learned
TTITLE11=No not again
TTITLE12=Expect a miracle reprise
EXTD=YEAR: 1999
EXTT0=
EXTT1=
EXTT2=
EXTT3=
EXTT4=
EXTT5=
EXTT6=
EXTT7=
EXTT8=
EXTT9=
EXTT10=
EXTT11=
EXTT12=
PLAYORDER=
